<svg xmlns="http://www.w3.org/2000/svg" xmlns:xlink="http://www.w3.org/1999/xlink" width="500" zoomAndPan="magnify" viewBox="0 0 375 374.999991" height="500" preserveAspectRatio="xMidYMid meet" version="1.0"><defs><filter x="0%" y="0%" width="100%" xlink:type="simple" xlink:actuate="onLoad" height="100%" id="id1" xlink:show="other"><feColorMatrix values="0 0 0 0 1 0 0 0 0 1 0 0 0 0 1 0 0 0 1 0" color-interpolation-filters="sRGB"/></filter><g><g id="id2"/><g id="id3"/></g><mask id="id4"><g filter="url(#id1)"><rect x="-37.5" width="450" fill="rgb(0%, 0%, 0%)" y="-37.499999" height="449.999989" fill-opacity="0.4784"/></g></mask><clipPath id="id5"><path d="M 0.5625 1.125 L 22.3125 1.125 L 22.3125 22.875 L 0.5625 22.875 Z M 0.5625 1.125 " clip-rule="nonzero"/></clipPath><clipPath id="id6"><rect x="0" width="23" y="0" height="24"/></clipPath><mask id="id7"><g filter="url(#id1)"><rect x="-37.5" width="450" fill="rgb(0%, 0%, 0%)" y="-37.499999" height="449.999989" fill-opacity="0.8"/></g></mask><clipPath id="id8"><path d="M 0.9375 0.875 L 22.6875 0.875 L 22.6875 22.625 L 0.9375 22.625 Z M 0.9375 0.875 " clip-rule="nonzero"/></clipPath><clipPath id="id9"><rect x="0" width="23" y="0" height="23"/></clipPath><clipPath id="id10"><path d="M 73.3125 145.875 L 95.0625 145.875 L 95.0625 167.625 L 73.3125 167.625 Z M 73.3125 145.875 " clip-rule="nonzero"/></clipPath><mask id="id11"><g filter="url(#id1)"><rect x="-37.5" width="450" fill="rgb(0%, 0%, 0%)" y="-37.499999" height="449.999989" fill-opacity="0.4784"/></g></mask><clipPath id="id12"><path d="M 0.9375 0.5 L 22.6875 0.5 L 22.6875 22.25 L 0.9375 22.25 Z M 0.9375 0.5 " clip-rule="nonzero"/></clipPath><clipPath id="id13"><rect x="0" width="23" y="0" height="23"/></clipPath><mask id="id14"><g filter="url(#id1)"><rect x="-37.5" width="450" fill="rgb(0%, 0%, 0%)" y="-37.499999" height="449.999989" fill-opacity="0.8"/></g></mask><clipPath id="id15"><path d="M 0.3125 0.5625 L 22.0625 0.5625 L 22.0625 22.3125 L 0.3125 22.3125 Z M 0.3125 0.5625 " clip-rule="nonzero"/></clipPath><clipPath id="id16"><rect x="0" width="23" y="0" height="23"/></clipPath><clipPath id="id17"><path d="M 279.9375 135.1875 L 301.6875 135.1875 L 301.6875 156.9375 L 279.9375 156.9375 Z M 279.9375 135.1875 " clip-rule="nonzero"/></clipPath></defs><g fill="rgb(100%, 100%, 100%)" fill-opacity="1"><g transform="translate(110.331373, 242.468684)"><g><path d="M 9.59375 -0.5625 C 9.59375 -0.132812 8.332031 0.078125 5.8125 0.078125 C 3.257812 0.078125 1.984375 -0.117188 1.984375 -0.515625 L 1.984375 -26.46875 C 1.984375 -27.394531 2.476562 -27.859375 3.46875 -27.859375 L 11.0625 -27.859375 C 18.039062 -27.859375 21.53125 -25.140625 21.53125 -19.703125 C 21.53125 -18.054688 21.210938 -16.5625 20.578125 -15.21875 C 19.941406 -13.882812 19.039062 -12.816406 17.875 -12.015625 L 22.890625 -3.65625 C 22.671875 -3.019531 21.976562 -2.289062 20.8125 -1.46875 C 19.21875 -0.332031 17.90625 0.234375 16.875 0.234375 C 15.84375 0.234375 15.070312 -0.132812 14.5625 -0.875 L 10.828125 -9.59375 L 9.59375 -9.59375 Z M 9.59375 -20.8125 L 9.59375 -14.84375 L 9.796875 -14.84375 C 12.316406 -14.84375 13.578125 -15.890625 13.578125 -17.984375 C 13.578125 -18.941406 13.328125 -19.648438 12.828125 -20.109375 C 12.335938 -20.578125 11.535156 -20.8125 10.421875 -20.8125 Z M 9.59375 -20.8125 "/></g></g></g><g fill="rgb(100%, 100%, 100%)" fill-opacity="1"><g transform="translate(134.998645, 242.468684)"><g><path d="M 14.921875 -16.796875 C 15.429688 -16.796875 15.6875 -15.867188 15.6875 -14.015625 C 15.6875 -13.453125 15.625 -12.789062 15.5 -12.03125 C 15.382812 -11.28125 15.164062 -10.90625 14.84375 -10.90625 L 9.796875 -10.90625 L 9.796875 -6.921875 L 17.109375 -6.921875 C 17.566406 -6.921875 17.875 -6.335938 18.03125 -5.171875 C 18.101562 -4.671875 18.140625 -4.132812 18.140625 -3.5625 C 18.140625 -2.988281 18.0625 -2.25 17.90625 -1.34375 C 17.75 -0.445312 17.484375 0 17.109375 0 L 3.5 0 C 2.488281 0 1.984375 -0.410156 1.984375 -1.234375 L 1.984375 -26.828125 C 1.984375 -27.515625 2.289062 -27.859375 2.90625 -27.859375 L 17.15625 -27.859375 C 17.707031 -27.859375 17.984375 -26.679688 17.984375 -24.328125 C 17.984375 -21.984375 17.707031 -20.8125 17.15625 -20.8125 L 9.796875 -20.8125 L 9.796875 -16.796875 Z M 14.921875 -16.796875 "/></g></g></g><g fill="rgb(100%, 100%, 100%)" fill-opacity="1"><g transform="translate(155.806751, 242.468684)"><g><path d="M 0.828125 -27.453125 C 0.753906 -27.742188 2.097656 -27.890625 4.859375 -27.890625 C 7.910156 -27.890625 9.472656 -27.640625 9.546875 -27.140625 L 11.5 -10.390625 L 15.71875 -27.34375 C 15.851562 -27.738281 16.890625 -27.9375 18.828125 -27.9375 C 20.765625 -27.9375 21.796875 -27.75 21.921875 -27.375 L 26.0625 -10.3125 L 28.375 -27.21875 C 28.425781 -27.507812 29.035156 -27.707031 30.203125 -27.8125 C 31.367188 -27.925781 32.3125 -27.984375 33.03125 -27.984375 C 35.8125 -27.984375 37.164062 -27.796875 37.09375 -27.421875 L 32.28125 -1.03125 C 32.164062 -0.632812 31.40625 -0.34375 30 -0.15625 C 28.59375 0.03125 27.453125 0.125 26.578125 0.125 C 23.296875 0.125 21.570312 -0.25 21.40625 -1 L 18.703125 -11.9375 L 15.765625 -1.03125 C 15.648438 -0.550781 14.71875 -0.207031 12.96875 0 C 12.070312 0.0820312 11.171875 0.125 10.265625 0.125 L 7.71875 0 C 5.96875 -0.1875 5.039062 -0.519531 4.9375 -1 Z M 0.828125 -27.453125 "/></g></g></g><g fill="rgb(100%, 100%, 100%)" fill-opacity="1"><g transform="translate(194.916057, 242.468684)"><g><path d="M 4.609375 -6.84375 L 4.609375 -21.015625 L 1.796875 -21.015625 C 1.335938 -21.015625 1.015625 -21.582031 0.828125 -22.71875 C 0.753906 -23.28125 0.71875 -23.851562 0.71875 -24.4375 C 0.71875 -25.019531 0.753906 -25.585938 0.828125 -26.140625 C 1.015625 -27.285156 1.335938 -27.859375 1.796875 -27.859375 L 15.15625 -27.859375 C 15.613281 -27.859375 15.921875 -27.285156 16.078125 -26.140625 C 16.179688 -25.585938 16.234375 -25.019531 16.234375 -24.4375 C 16.234375 -23.851562 16.179688 -23.28125 16.078125 -22.71875 C 15.921875 -21.582031 15.613281 -21.015625 15.15625 -21.015625 L 12.5 -21.015625 L 12.5 -6.84375 L 15.28125 -6.84375 C 15.726562 -6.84375 16.046875 -6.273438 16.234375 -5.140625 C 16.335938 -4.578125 16.390625 -4.003906 16.390625 -3.421875 C 16.390625 -2.835938 16.335938 -2.269531 16.234375 -1.71875 C 16.046875 -0.570312 15.726562 0 15.28125 0 L 1.875 0 C 1.414062 0 1.109375 -0.570312 0.953125 -1.71875 C 0.847656 -2.269531 0.796875 -2.835938 0.796875 -3.421875 C 0.796875 -4.003906 0.847656 -4.578125 0.953125 -5.140625 C 1.109375 -6.273438 1.414062 -6.84375 1.875 -6.84375 Z M 4.609375 -6.84375 "/></g></g></g><g fill="rgb(100%, 100%, 100%)" fill-opacity="1"><g transform="translate(213.177908, 242.468684)"><g><path d="M 23.796875 -0.875 C 23.796875 -0.320312 22.546875 -0.046875 20.046875 -0.046875 C 17.554688 -0.046875 16.207031 -0.242188 16 -0.640625 L 9.359375 -13.046875 L 9.359375 -0.671875 C 9.359375 -0.191406 8.128906 0.046875 5.671875 0.046875 C 3.210938 0.046875 1.984375 -0.191406 1.984375 -0.671875 L 1.984375 -27.296875 C 1.984375 -27.691406 3.035156 -27.890625 5.140625 -27.890625 C 5.960938 -27.890625 6.921875 -27.816406 8.015625 -27.671875 C 9.117188 -27.523438 9.789062 -27.253906 10.03125 -26.859375 L 16.390625 -14.609375 L 16.390625 -27.109375 C 16.390625 -27.609375 17.625 -27.859375 20.09375 -27.859375 C 22.5625 -27.859375 23.796875 -27.609375 23.796875 -27.109375 Z M 23.796875 -0.875 "/></g></g></g><g fill="rgb(100%, 100%, 100%)" fill-opacity="1"><g transform="translate(240.152717, 242.468684)"><g><path d="M 1.984375 -1.828125 L 1.984375 -25.703125 C 1.984375 -26.367188 2.148438 -26.894531 2.484375 -27.28125 C 2.816406 -27.664062 3.25 -27.859375 3.78125 -27.859375 L 10.421875 -27.859375 C 14.640625 -27.859375 17.84375 -26.796875 20.03125 -24.671875 C 22.226562 -22.546875 23.328125 -19.203125 23.328125 -14.640625 C 23.328125 -4.878906 19.160156 0 10.828125 0 L 4.015625 0 C 2.660156 0 1.984375 -0.609375 1.984375 -1.828125 Z M 9.625 -20.296875 L 9.625 -8.390625 C 9.625 -7.835938 9.664062 -7.488281 9.75 -7.34375 C 9.832031 -7.195312 10.070312 -7.125 10.46875 -7.125 C 11.925781 -7.125 13.03125 -7.664062 13.78125 -8.75 C 14.539062 -9.84375 14.921875 -11.65625 14.921875 -14.1875 C 14.921875 -16.71875 14.53125 -18.367188 13.75 -19.140625 C 12.96875 -19.910156 11.726562 -20.296875 10.03125 -20.296875 Z M 9.625 -20.296875 "/></g></g></g><g fill="rgb(100%, 83.139038%, 23.919678%)" fill-opacity="1"><g transform="translate(78.591077, 280.411916)"><g><path d="M 1.0625 -3.390625 C 1.238281 -3.253906 1.539062 -3.066406 1.96875 -2.828125 C 2.394531 -2.585938 2.804688 -2.46875 3.203125 -2.46875 C 3.597656 -2.46875 3.796875 -2.617188 3.796875 -2.921875 C 3.796875 -3.054688 3.738281 -3.175781 3.625 -3.28125 C 3.519531 -3.394531 3.316406 -3.519531 3.015625 -3.65625 C 2.722656 -3.789062 2.5 -3.898438 2.34375 -3.984375 C 2.195312 -4.066406 2 -4.195312 1.75 -4.375 C 1.507812 -4.550781 1.328125 -4.738281 1.203125 -4.9375 C 0.828125 -5.46875 0.640625 -6.140625 0.640625 -6.953125 C 0.640625 -7.765625 0.941406 -8.453125 1.546875 -9.015625 C 2.160156 -9.578125 2.957031 -9.859375 3.9375 -9.859375 C 4.601562 -9.859375 5.21875 -9.785156 5.78125 -9.640625 C 6.351562 -9.492188 6.644531 -9.304688 6.65625 -9.078125 C 6.65625 -9.046875 6.65625 -9.019531 6.65625 -9 C 6.65625 -8.675781 6.550781 -8.265625 6.34375 -7.765625 C 6.144531 -7.265625 6.003906 -6.988281 5.921875 -6.9375 C 5.328125 -7.238281 4.796875 -7.390625 4.328125 -7.390625 C 3.859375 -7.390625 3.625 -7.222656 3.625 -6.890625 C 3.625 -6.691406 3.796875 -6.515625 4.140625 -6.359375 C 4.210938 -6.316406 4.316406 -6.265625 4.453125 -6.203125 C 4.597656 -6.140625 4.757812 -6.0625 4.9375 -5.96875 C 5.125 -5.882812 5.320312 -5.773438 5.53125 -5.640625 C 5.738281 -5.503906 5.960938 -5.328125 6.203125 -5.109375 C 6.691406 -4.640625 6.9375 -4.023438 6.9375 -3.265625 C 6.9375 -2.273438 6.660156 -1.460938 6.109375 -0.828125 C 5.566406 -0.203125 4.726562 0.117188 3.59375 0.140625 C 3.03125 0.140625 2.523438 0.09375 2.078125 0 C 1.628906 -0.09375 1.238281 -0.273438 0.90625 -0.546875 C 0.570312 -0.816406 0.40625 -1.140625 0.40625 -1.515625 C 0.40625 -1.890625 0.472656 -2.265625 0.609375 -2.640625 C 0.753906 -3.023438 0.90625 -3.273438 1.0625 -3.390625 Z M 1.0625 -3.390625 "/></g></g></g><g fill="rgb(100%, 83.139038%, 23.919678%)" fill-opacity="1"><g transform="translate(87.229519, 280.411916)"><g><path d="M 4.875 -0.21875 C 4.875 -0.03125 4.414062 0.0625 3.5 0.0625 C 2.582031 0.0625 2.125 -0.03125 2.125 -0.21875 L 2.125 -7.203125 L 0.453125 -7.203125 C 0.296875 -7.203125 0.1875 -7.414062 0.125 -7.84375 C 0.09375 -8.050781 0.078125 -8.257812 0.078125 -8.46875 C 0.078125 -8.675781 0.09375 -8.882812 0.125 -9.09375 C 0.1875 -9.519531 0.296875 -9.734375 0.453125 -9.734375 L 6.515625 -9.734375 C 6.671875 -9.734375 6.78125 -9.519531 6.84375 -9.09375 C 6.875 -8.882812 6.890625 -8.675781 6.890625 -8.46875 C 6.890625 -8.257812 6.875 -8.050781 6.84375 -7.84375 C 6.78125 -7.414062 6.671875 -7.203125 6.515625 -7.203125 L 4.875 -7.203125 Z M 4.875 -0.21875 "/></g></g></g><g fill="rgb(100%, 83.139038%, 23.919678%)" fill-opacity="1"><g transform="translate(95.464569, 280.411916)"><g><path d="M 3.34375 -0.1875 C 3.34375 -0.0390625 2.90625 0.03125 2.03125 0.03125 C 1.132812 0.03125 0.6875 -0.0390625 0.6875 -0.1875 L 0.6875 -9.25 C 0.6875 -9.570312 0.859375 -9.734375 1.203125 -9.734375 L 3.859375 -9.734375 C 6.296875 -9.734375 7.515625 -8.785156 7.515625 -6.890625 C 7.515625 -6.304688 7.40625 -5.78125 7.1875 -5.3125 C 6.96875 -4.84375 6.65625 -4.472656 6.25 -4.203125 L 8 -1.28125 C 7.925781 -1.0625 7.679688 -0.804688 7.265625 -0.515625 C 6.710938 -0.117188 6.253906 0.078125 5.890625 0.078125 C 5.535156 0.078125 5.269531 -0.0507812 5.09375 -0.3125 L 3.78125 -3.34375 L 3.34375 -3.34375 Z M 3.34375 -7.265625 L 3.34375 -5.1875 L 3.421875 -5.1875 C 4.296875 -5.1875 4.734375 -5.550781 4.734375 -6.28125 C 4.734375 -6.613281 4.648438 -6.859375 4.484375 -7.015625 C 4.316406 -7.179688 4.035156 -7.265625 3.640625 -7.265625 Z M 3.34375 -7.265625 "/></g></g></g><g fill="rgb(100%, 83.139038%, 23.919678%)" fill-opacity="1"><g transform="translate(104.923714, 280.411916)"><g><path d="M 1.609375 -2.390625 L 1.609375 -7.34375 L 0.625 -7.34375 C 0.46875 -7.34375 0.359375 -7.539062 0.296875 -7.9375 C 0.265625 -8.132812 0.25 -8.332031 0.25 -8.53125 C 0.25 -8.738281 0.265625 -8.941406 0.296875 -9.140625 C 0.359375 -9.535156 0.46875 -9.734375 0.625 -9.734375 L 5.296875 -9.734375 C 5.453125 -9.734375 5.5625 -9.535156 5.625 -9.140625 C 5.65625 -8.941406 5.671875 -8.738281 5.671875 -8.53125 C 5.671875 -8.332031 5.65625 -8.132812 5.625 -7.9375 C 5.5625 -7.539062 5.453125 -7.34375 5.296875 -7.34375 L 4.359375 -7.34375 L 4.359375 -2.390625 L 5.34375 -2.390625 C 5.5 -2.390625 5.609375 -2.191406 5.671875 -1.796875 C 5.710938 -1.597656 5.734375 -1.394531 5.734375 -1.1875 C 5.734375 -0.988281 5.710938 -0.789062 5.671875 -0.59375 C 5.609375 -0.195312 5.5 0 5.34375 0 L 0.65625 0 C 0.5 0 0.390625 -0.195312 0.328125 -0.59375 C 0.296875 -0.789062 0.28125 -0.988281 0.28125 -1.1875 C 0.28125 -1.394531 0.296875 -1.597656 0.328125 -1.796875 C 0.390625 -2.191406 0.5 -2.390625 0.65625 -2.390625 Z M 1.609375 -2.390625 "/></g></g></g><g fill="rgb(100%, 83.139038%, 23.919678%)" fill-opacity="1"><g transform="translate(112.143327, 280.411916)"><g><path d="M 8.3125 -0.3125 C 8.3125 -0.113281 7.875 -0.015625 7 -0.015625 C 6.132812 -0.015625 5.664062 -0.0820312 5.59375 -0.21875 L 3.265625 -4.5625 L 3.265625 -0.234375 C 3.265625 -0.0664062 2.832031 0.015625 1.96875 0.015625 C 1.113281 0.015625 0.6875 -0.0664062 0.6875 -0.234375 L 0.6875 -9.546875 C 0.6875 -9.679688 1.054688 -9.75 1.796875 -9.75 C 2.078125 -9.75 2.410156 -9.722656 2.796875 -9.671875 C 3.179688 -9.617188 3.414062 -9.523438 3.5 -9.390625 L 5.734375 -5.109375 L 5.734375 -9.46875 C 5.734375 -9.644531 6.160156 -9.734375 7.015625 -9.734375 C 7.878906 -9.734375 8.3125 -9.644531 8.3125 -9.46875 Z M 8.3125 -0.3125 "/></g></g></g><g fill="rgb(100%, 83.139038%, 23.919678%)" fill-opacity="1"><g transform="translate(122.409255, 280.411916)"><g><path d="M 5.84375 -2.90625 L 5.875 -4.796875 C 5.875 -4.929688 6.003906 -5.019531 6.265625 -5.0625 C 6.535156 -5.101562 6.757812 -5.125 6.9375 -5.125 L 7.484375 -5.078125 C 7.835938 -5.023438 8.015625 -4.925781 8.015625 -4.78125 L 7.953125 -0.4375 C 7.765625 -0.300781 7.390625 -0.171875 6.828125 -0.046875 C 6.273438 0.078125 5.632812 0.140625 4.90625 0.140625 C 3.5625 0.140625 2.476562 -0.289062 1.65625 -1.15625 C 0.832031 -2.03125 0.421875 -3.3125 0.421875 -5 C 0.421875 -6.4375 0.820312 -7.601562 1.625 -8.5 C 2.4375 -9.40625 3.554688 -9.859375 4.984375 -9.859375 C 5.628906 -9.859375 6.210938 -9.796875 6.734375 -9.671875 C 7.253906 -9.546875 7.613281 -9.378906 7.8125 -9.171875 C 7.820312 -9.085938 7.828125 -8.941406 7.828125 -8.734375 C 7.828125 -8.535156 7.753906 -8.25 7.609375 -7.875 C 7.472656 -7.5 7.316406 -7.21875 7.140625 -7.03125 C 6.972656 -6.851562 6.847656 -6.765625 6.765625 -6.765625 C 6.679688 -6.765625 6.597656 -6.796875 6.515625 -6.859375 C 6.429688 -6.929688 6.257812 -7.003906 6 -7.078125 C 5.738281 -7.160156 5.488281 -7.203125 5.25 -7.203125 C 4.664062 -7.203125 4.195312 -7.015625 3.84375 -6.640625 C 3.488281 -6.273438 3.3125 -5.703125 3.3125 -4.921875 C 3.3125 -4.140625 3.492188 -3.546875 3.859375 -3.140625 C 4.222656 -2.742188 4.644531 -2.546875 5.125 -2.546875 C 5.601562 -2.546875 5.84375 -2.664062 5.84375 -2.90625 Z M 5.84375 -2.90625 "/></g></g></g><g fill="rgb(100%, 83.139038%, 23.919678%)" fill-opacity="1"><g transform="translate(132.29961, 280.411916)"><g><path d="M 1.0625 -3.390625 C 1.238281 -3.253906 1.539062 -3.066406 1.96875 -2.828125 C 2.394531 -2.585938 2.804688 -2.46875 3.203125 -2.46875 C 3.597656 -2.46875 3.796875 -2.617188 3.796875 -2.921875 C 3.796875 -3.054688 3.738281 -3.175781 3.625 -3.28125 C 3.519531 -3.394531 3.316406 -3.519531 3.015625 -3.65625 C 2.722656 -3.789062 2.5 -3.898438 2.34375 -3.984375 C 2.195312 -4.066406 2 -4.195312 1.75 -4.375 C 1.507812 -4.550781 1.328125 -4.738281 1.203125 -4.9375 C 0.828125 -5.46875 0.640625 -6.140625 0.640625 -6.953125 C 0.640625 -7.765625 0.941406 -8.453125 1.546875 -9.015625 C 2.160156 -9.578125 2.957031 -9.859375 3.9375 -9.859375 C 4.601562 -9.859375 5.21875 -9.785156 5.78125 -9.640625 C 6.351562 -9.492188 6.644531 -9.304688 6.65625 -9.078125 C 6.65625 -9.046875 6.65625 -9.019531 6.65625 -9 C 6.65625 -8.675781 6.550781 -8.265625 6.34375 -7.765625 C 6.144531 -7.265625 6.003906 -6.988281 5.921875 -6.9375 C 5.328125 -7.238281 4.796875 -7.390625 4.328125 -7.390625 C 3.859375 -7.390625 3.625 -7.222656 3.625 -6.890625 C 3.625 -6.691406 3.796875 -6.515625 4.140625 -6.359375 C 4.210938 -6.316406 4.316406 -6.265625 4.453125 -6.203125 C 4.597656 -6.140625 4.757812 -6.0625 4.9375 -5.96875 C 5.125 -5.882812 5.320312 -5.773438 5.53125 -5.640625 C 5.738281 -5.503906 5.960938 -5.328125 6.203125 -5.109375 C 6.691406 -4.640625 6.9375 -4.023438 6.9375 -3.265625 C 6.9375 -2.273438 6.660156 -1.460938 6.109375 -0.828125 C 5.566406 -0.203125 4.726562 0.117188 3.59375 0.140625 C 3.03125 0.140625 2.523438 0.09375 2.078125 0 C 1.628906 -0.09375 1.238281 -0.273438 0.90625 -0.546875 C 0.570312 -0.816406 0.40625 -1.140625 0.40625 -1.515625 C 0.40625 -1.890625 0.472656 -2.265625 0.609375 -2.640625 C 0.753906 -3.023438 0.90625 -3.273438 1.0625 -3.390625 Z M 1.0625 -3.390625 "/></g></g></g><g fill="rgb(100%, 83.139038%, 23.919678%)" fill-opacity="1"><g transform="translate(140.938051, 280.411916)"><g/></g></g><g fill="rgb(100%, 83.139038%, 23.919678%)" fill-opacity="1"><g transform="translate(144.805324, 280.411916)"><g><path d="M 5.25 -9.453125 C 5.25 -9.640625 5.75 -9.734375 6.75 -9.734375 C 7.757812 -9.734375 8.265625 -9.640625 8.265625 -9.453125 L 8.265625 -3.078125 C 8.265625 -2.128906 7.925781 -1.351562 7.25 -0.75 C 6.570312 -0.15625 5.632812 0.140625 4.4375 0.140625 C 3.25 0.140625 2.28125 -0.164062 1.53125 -0.78125 C 0.789062 -1.394531 0.421875 -2.226562 0.421875 -3.28125 L 0.421875 -9.4375 C 0.421875 -9.625 0.921875 -9.71875 1.921875 -9.71875 C 2.929688 -9.71875 3.4375 -9.625 3.4375 -9.4375 L 3.4375 -3.171875 C 3.4375 -2.984375 3.535156 -2.832031 3.734375 -2.71875 C 3.929688 -2.613281 4.140625 -2.5625 4.359375 -2.5625 C 4.585938 -2.5625 4.789062 -2.609375 4.96875 -2.703125 C 5.15625 -2.804688 5.25 -2.960938 5.25 -3.171875 Z M 5.25 -9.453125 "/></g></g></g><g fill="rgb(100%, 83.139038%, 23.919678%)" fill-opacity="1"><g transform="translate(154.793045, 280.411916)"><g><path d="M 8.3125 -0.3125 C 8.3125 -0.113281 7.875 -0.015625 7 -0.015625 C 6.132812 -0.015625 5.664062 -0.0820312 5.59375 -0.21875 L 3.265625 -4.5625 L 3.265625 -0.234375 C 3.265625 -0.0664062 2.832031 0.015625 1.96875 0.015625 C 1.113281 0.015625 0.6875 -0.0664062 0.6875 -0.234375 L 0.6875 -9.546875 C 0.6875 -9.679688 1.054688 -9.75 1.796875 -9.75 C 2.078125 -9.75 2.410156 -9.722656 2.796875 -9.671875 C 3.179688 -9.617188 3.414062 -9.523438 3.5 -9.390625 L 5.734375 -5.109375 L 5.734375 -9.46875 C 5.734375 -9.644531 6.160156 -9.734375 7.015625 -9.734375 C 7.878906 -9.734375 8.3125 -9.644531 8.3125 -9.46875 Z M 8.3125 -0.3125 "/></g></g></g><g fill="rgb(100%, 83.139038%, 23.919678%)" fill-opacity="1"><g transform="translate(165.058973, 280.411916)"><g><path d="M 0.6875 -0.640625 L 0.6875 -8.984375 C 0.6875 -9.210938 0.742188 -9.394531 0.859375 -9.53125 C 0.984375 -9.664062 1.140625 -9.734375 1.328125 -9.734375 L 3.640625 -9.734375 C 5.117188 -9.734375 6.238281 -9.363281 7 -8.625 C 7.769531 -7.882812 8.15625 -6.71875 8.15625 -5.125 C 8.15625 -1.707031 6.695312 0 3.78125 0 L 1.40625 0 C 0.925781 0 0.6875 -0.210938 0.6875 -0.640625 Z M 3.359375 -7.09375 L 3.359375 -2.9375 C 3.359375 -2.738281 3.375 -2.613281 3.40625 -2.5625 C 3.4375 -2.507812 3.519531 -2.484375 3.65625 -2.484375 C 4.164062 -2.484375 4.550781 -2.671875 4.8125 -3.046875 C 5.082031 -3.429688 5.21875 -4.066406 5.21875 -4.953125 C 5.21875 -5.835938 5.078125 -6.414062 4.796875 -6.6875 C 4.523438 -6.957031 4.09375 -7.09375 3.5 -7.09375 Z M 3.359375 -7.09375 "/></g></g></g><g fill="rgb(100%, 83.139038%, 23.919678%)" fill-opacity="1"><g transform="translate(174.879771, 280.411916)"><g/></g></g><g fill="rgb(100%, 83.139038%, 23.919678%)" fill-opacity="1"><g transform="translate(178.74705, 280.411916)"><g><path d="M 0.296875 -9.59375 C 0.265625 -9.695312 0.734375 -9.75 1.703125 -9.75 C 2.765625 -9.75 3.3125 -9.660156 3.34375 -9.484375 L 4.015625 -3.625 L 5.5 -9.546875 C 5.539062 -9.691406 5.898438 -9.765625 6.578125 -9.765625 C 7.253906 -9.765625 7.613281 -9.695312 7.65625 -9.5625 L 9.109375 -3.609375 L 9.921875 -9.515625 C 9.929688 -9.617188 10.140625 -9.6875 10.546875 -9.71875 C 10.960938 -9.757812 11.296875 -9.78125 11.546875 -9.78125 C 12.515625 -9.78125 12.984375 -9.710938 12.953125 -9.578125 L 11.28125 -0.359375 C 11.238281 -0.222656 10.972656 -0.117188 10.484375 -0.046875 C 9.992188 0.015625 9.597656 0.046875 9.296875 0.046875 C 8.140625 0.046875 7.535156 -0.0820312 7.484375 -0.34375 L 6.53125 -4.171875 L 5.5 -0.359375 C 5.46875 -0.191406 5.144531 -0.0703125 4.53125 0 C 4.21875 0.03125 3.90625 0.046875 3.59375 0.046875 L 2.703125 0 C 2.085938 -0.0625 1.757812 -0.175781 1.71875 -0.34375 Z M 0.296875 -9.59375 "/></g></g></g><g fill="rgb(100%, 83.139038%, 23.919678%)" fill-opacity="1"><g transform="translate(193.255571, 280.411916)"><g><path d="M 1.609375 -2.390625 L 1.609375 -7.34375 L 0.625 -7.34375 C 0.46875 -7.34375 0.359375 -7.539062 0.296875 -7.9375 C 0.265625 -8.132812 0.25 -8.332031 0.25 -8.53125 C 0.25 -8.738281 0.265625 -8.941406 0.296875 -9.140625 C 0.359375 -9.535156 0.46875 -9.734375 0.625 -9.734375 L 5.296875 -9.734375 C 5.453125 -9.734375 5.5625 -9.535156 5.625 -9.140625 C 5.65625 -8.941406 5.671875 -8.738281 5.671875 -8.53125 C 5.671875 -8.332031 5.65625 -8.132812 5.625 -7.9375 C 5.5625 -7.539062 5.453125 -7.34375 5.296875 -7.34375 L 4.359375 -7.34375 L 4.359375 -2.390625 L 5.34375 -2.390625 C 5.5 -2.390625 5.609375 -2.191406 5.671875 -1.796875 C 5.710938 -1.597656 5.734375 -1.394531 5.734375 -1.1875 C 5.734375 -0.988281 5.710938 -0.789062 5.671875 -0.59375 C 5.609375 -0.195312 5.5 0 5.34375 0 L 0.65625 0 C 0.5 0 0.390625 -0.195312 0.328125 -0.59375 C 0.296875 -0.789062 0.28125 -0.988281 0.28125 -1.1875 C 0.28125 -1.394531 0.296875 -1.597656 0.328125 -1.796875 C 0.390625 -2.191406 0.5 -2.390625 0.65625 -2.390625 Z M 1.609375 -2.390625 "/></g></g></g><g fill="rgb(100%, 83.139038%, 23.919678%)" fill-opacity="1"><g transform="translate(200.47519, 280.411916)"><g><path d="M 5.21875 -5.875 C 5.394531 -5.875 5.484375 -5.546875 5.484375 -4.890625 C 5.484375 -4.703125 5.460938 -4.472656 5.421875 -4.203125 C 5.378906 -3.941406 5.300781 -3.8125 5.1875 -3.8125 L 3.421875 -3.8125 L 3.421875 -2.421875 L 5.984375 -2.421875 C 6.140625 -2.421875 6.242188 -2.21875 6.296875 -1.8125 C 6.328125 -1.632812 6.34375 -1.445312 6.34375 -1.25 C 6.34375 -1.050781 6.3125 -0.789062 6.25 -0.46875 C 6.195312 -0.15625 6.109375 0 5.984375 0 L 1.21875 0 C 0.863281 0 0.6875 -0.144531 0.6875 -0.4375 L 0.6875 -9.375 C 0.6875 -9.613281 0.796875 -9.734375 1.015625 -9.734375 L 6 -9.734375 C 6.1875 -9.734375 6.28125 -9.320312 6.28125 -8.5 C 6.28125 -7.675781 6.1875 -7.265625 6 -7.265625 L 3.421875 -7.265625 L 3.421875 -5.875 Z M 5.21875 -5.875 "/></g></g></g><g fill="rgb(100%, 83.139038%, 23.919678%)" fill-opacity="1"><g transform="translate(208.585057, 280.411916)"><g><path d="M 0.6875 -0.640625 L 0.6875 -8.984375 C 0.6875 -9.210938 0.742188 -9.394531 0.859375 -9.53125 C 0.984375 -9.664062 1.140625 -9.734375 1.328125 -9.734375 L 3.640625 -9.734375 C 5.117188 -9.734375 6.238281 -9.363281 7 -8.625 C 7.769531 -7.882812 8.15625 -6.71875 8.15625 -5.125 C 8.15625 -1.707031 6.695312 0 3.78125 0 L 1.40625 0 C 0.925781 0 0.6875 -0.210938 0.6875 -0.640625 Z M 3.359375 -7.09375 L 3.359375 -2.9375 C 3.359375 -2.738281 3.375 -2.613281 3.40625 -2.5625 C 3.4375 -2.507812 3.519531 -2.484375 3.65625 -2.484375 C 4.164062 -2.484375 4.550781 -2.671875 4.8125 -3.046875 C 5.082031 -3.429688 5.21875 -4.066406 5.21875 -4.953125 C 5.21875 -5.835938 5.078125 -6.414062 4.796875 -6.6875 C 4.523438 -6.957031 4.09375 -7.09375 3.5 -7.09375 Z M 3.359375 -7.09375 "/></g></g></g><g fill="rgb(100%, 83.139038%, 23.919678%)" fill-opacity="1"><g transform="translate(218.405861, 280.411916)"><g><path d="M 5.21875 -5.875 C 5.394531 -5.875 5.484375 -5.546875 5.484375 -4.890625 C 5.484375 -4.703125 5.460938 -4.472656 5.421875 -4.203125 C 5.378906 -3.941406 5.300781 -3.8125 5.1875 -3.8125 L 3.421875 -3.8125 L 3.421875 -2.421875 L 5.984375 -2.421875 C 6.140625 -2.421875 6.242188 -2.21875 6.296875 -1.8125 C 6.328125 -1.632812 6.34375 -1.445312 6.34375 -1.25 C 6.34375 -1.050781 6.3125 -0.789062 6.25 -0.46875 C 6.195312 -0.15625 6.109375 0 5.984375 0 L 1.21875 0 C 0.863281 0 0.6875 -0.144531 0.6875 -0.4375 L 0.6875 -9.375 C 0.6875 -9.613281 0.796875 -9.734375 1.015625 -9.734375 L 6 -9.734375 C 6.1875 -9.734375 6.28125 -9.320312 6.28125 -8.5 C 6.28125 -7.675781 6.1875 -7.265625 6 -7.265625 L 3.421875 -7.265625 L 3.421875 -5.875 Z M 5.21875 -5.875 "/></g></g></g><g fill="rgb(100%, 83.139038%, 23.919678%)" fill-opacity="1"><g transform="translate(226.515727, 280.411916)"><g><path d="M 3.34375 -0.1875 C 3.34375 -0.0390625 2.90625 0.03125 2.03125 0.03125 C 1.132812 0.03125 0.6875 -0.0390625 0.6875 -0.1875 L 0.6875 -9.25 C 0.6875 -9.570312 0.859375 -9.734375 1.203125 -9.734375 L 3.859375 -9.734375 C 6.296875 -9.734375 7.515625 -8.785156 7.515625 -6.890625 C 7.515625 -6.304688 7.40625 -5.78125 7.1875 -5.3125 C 6.96875 -4.84375 6.65625 -4.472656 6.25 -4.203125 L 8 -1.28125 C 7.925781 -1.0625 7.679688 -0.804688 7.265625 -0.515625 C 6.710938 -0.117188 6.253906 0.078125 5.890625 0.078125 C 5.535156 0.078125 5.269531 -0.0507812 5.09375 -0.3125 L 3.78125 -3.34375 L 3.34375 -3.34375 Z M 3.34375 -7.265625 L 3.34375 -5.1875 L 3.421875 -5.1875 C 4.296875 -5.1875 4.734375 -5.550781 4.734375 -6.28125 C 4.734375 -6.613281 4.648438 -6.859375 4.484375 -7.015625 C 4.316406 -7.179688 4.035156 -7.265625 3.640625 -7.265625 Z M 3.34375 -7.265625 "/></g></g></g><g fill="rgb(100%, 83.139038%, 23.919678%)" fill-opacity="1"><g transform="translate(235.974875, 280.411916)"><g/></g></g><g fill="rgb(100%, 83.139038%, 23.919678%)" fill-opacity="1"><g transform="translate(239.842154, 280.411916)"><g><path d="M 1.0625 -7.203125 C 0.90625 -7.203125 0.789062 -7.414062 0.71875 -7.84375 C 0.695312 -8.019531 0.6875 -8.210938 0.6875 -8.421875 C 0.6875 -8.640625 0.707031 -8.863281 0.75 -9.09375 C 0.832031 -9.519531 0.972656 -9.734375 1.171875 -9.734375 L 6.3125 -9.734375 C 6.875 -9.734375 7.238281 -9.21875 7.40625 -8.1875 C 7.445312 -7.96875 7.46875 -7.804688 7.46875 -7.703125 L 4.21875 -2.765625 L 6.765625 -2.765625 C 6.765625 -2.765625 6.769531 -2.765625 6.78125 -2.765625 C 6.988281 -2.765625 7.132812 -2.539062 7.21875 -2.09375 C 7.25 -1.882812 7.265625 -1.660156 7.265625 -1.421875 C 7.265625 -1.191406 7.238281 -0.945312 7.1875 -0.6875 C 7.082031 -0.226562 6.925781 0 6.71875 0 L 1.3125 0 C 1.226562 0 1.078125 -0.28125 0.859375 -0.84375 C 0.640625 -1.40625 0.53125 -1.753906 0.53125 -1.890625 C 0.53125 -2.023438 0.539062 -2.113281 0.5625 -2.15625 L 3.828125 -7.203125 Z M 1.0625 -7.203125 "/></g></g></g><g fill="rgb(100%, 83.139038%, 23.919678%)" fill-opacity="1"><g transform="translate(248.92573, 280.411916)"><g><path d="M 5.25 -9.453125 C 5.25 -9.640625 5.75 -9.734375 6.75 -9.734375 C 7.757812 -9.734375 8.265625 -9.640625 8.265625 -9.453125 L 8.265625 -3.078125 C 8.265625 -2.128906 7.925781 -1.351562 7.25 -0.75 C 6.570312 -0.15625 5.632812 0.140625 4.4375 0.140625 C 3.25 0.140625 2.28125 -0.164062 1.53125 -0.78125 C 0.789062 -1.394531 0.421875 -2.226562 0.421875 -3.28125 L 0.421875 -9.4375 C 0.421875 -9.625 0.921875 -9.71875 1.921875 -9.71875 C 2.929688 -9.71875 3.4375 -9.625 3.4375 -9.4375 L 3.4375 -3.171875 C 3.4375 -2.984375 3.535156 -2.832031 3.734375 -2.71875 C 3.929688 -2.613281 4.140625 -2.5625 4.359375 -2.5625 C 4.585938 -2.5625 4.789062 -2.609375 4.96875 -2.703125 C 5.15625 -2.804688 5.25 -2.960938 5.25 -3.171875 Z M 5.25 -9.453125 "/></g></g></g><g fill="rgb(100%, 83.139038%, 23.919678%)" fill-opacity="1"><g transform="translate(258.913457, 280.411916)"><g><path d="M 3.34375 -0.1875 C 3.34375 -0.0390625 2.90625 0.03125 2.03125 0.03125 C 1.132812 0.03125 0.6875 -0.0390625 0.6875 -0.1875 L 0.6875 -9.25 C 0.6875 -9.570312 0.859375 -9.734375 1.203125 -9.734375 L 3.859375 -9.734375 C 6.296875 -9.734375 7.515625 -8.785156 7.515625 -6.890625 C 7.515625 -6.304688 7.40625 -5.78125 7.1875 -5.3125 C 6.96875 -4.84375 6.65625 -4.472656 6.25 -4.203125 L 8 -1.28125 C 7.925781 -1.0625 7.679688 -0.804688 7.265625 -0.515625 C 6.710938 -0.117188 6.253906 0.078125 5.890625 0.078125 C 5.535156 0.078125 5.269531 -0.0507812 5.09375 -0.3125 L 3.78125 -3.34375 L 3.34375 -3.34375 Z M 3.34375 -7.265625 L 3.34375 -5.1875 L 3.421875 -5.1875 C 4.296875 -5.1875 4.734375 -5.550781 4.734375 -6.28125 C 4.734375 -6.613281 4.648438 -6.859375 4.484375 -7.015625 C 4.316406 -7.179688 4.035156 -7.265625 3.640625 -7.265625 Z M 3.34375 -7.265625 "/></g></g></g><g fill="rgb(100%, 83.139038%, 23.919678%)" fill-opacity="1"><g transform="translate(268.372605, 280.411916)"><g><path d="M 3.734375 -10.453125 C 3.734375 -10.398438 3.410156 -10.375 2.765625 -10.375 C 2.117188 -10.375 1.796875 -10.394531 1.796875 -10.4375 L 1.796875 -12.390625 C 1.796875 -12.472656 2.117188 -12.515625 2.765625 -12.515625 C 3.410156 -12.515625 3.734375 -12.492188 3.734375 -12.453125 Z M 6.921875 -10.453125 C 6.921875 -10.398438 6.597656 -10.375 5.953125 -10.375 C 5.316406 -10.375 5 -10.394531 5 -10.4375 L 5 -12.390625 C 5 -12.472656 5.316406 -12.515625 5.953125 -12.515625 C 6.597656 -12.515625 6.921875 -12.492188 6.921875 -12.453125 Z M 5.25 -9.609375 C 5.25 -9.796875 5.75 -9.890625 6.75 -9.890625 C 7.757812 -9.890625 8.265625 -9.796875 8.265625 -9.609375 L 8.265625 -3.078125 C 8.265625 -2.128906 7.925781 -1.351562 7.25 -0.75 C 6.570312 -0.15625 5.632812 0.140625 4.4375 0.140625 C 3.25 0.140625 2.28125 -0.164062 1.53125 -0.78125 C 0.789062 -1.394531 0.421875 -2.226562 0.421875 -3.28125 L 0.421875 -9.5625 C 0.421875 -9.75 0.921875 -9.84375 1.921875 -9.84375 C 2.929688 -9.84375 3.4375 -9.75 3.4375 -9.5625 L 3.4375 -3.4375 C 3.4375 -3.25 3.535156 -3.101562 3.734375 -3 C 3.929688 -2.882812 4.140625 -2.828125 4.359375 -2.828125 C 4.585938 -2.828125 4.789062 -2.875 4.96875 -2.96875 C 5.15625 -3.070312 5.25 -3.226562 5.25 -3.4375 Z M 5.25 -9.609375 "/></g></g></g><g fill="rgb(100%, 83.139038%, 23.919678%)" fill-opacity="1"><g transform="translate(278.360321, 280.411916)"><g><path d="M 4.671875 -9.859375 C 5.347656 -9.859375 5.941406 -9.765625 6.453125 -9.578125 C 6.972656 -9.390625 7.234375 -9.128906 7.234375 -8.796875 C 7.234375 -8.472656 7.109375 -8.070312 6.859375 -7.59375 C 6.617188 -7.125 6.414062 -6.890625 6.25 -6.890625 C 6.195312 -6.890625 6.140625 -6.910156 6.078125 -6.953125 C 6.023438 -7.003906 5.890625 -7.0625 5.671875 -7.125 C 5.453125 -7.1875 5.265625 -7.21875 5.109375 -7.21875 C 4.566406 -7.21875 4.128906 -7.023438 3.796875 -6.640625 C 3.472656 -6.265625 3.3125 -5.6875 3.3125 -4.90625 C 3.3125 -4.125 3.476562 -3.539062 3.8125 -3.15625 C 4.15625 -2.78125 4.585938 -2.59375 5.109375 -2.59375 C 5.316406 -2.59375 5.550781 -2.617188 5.8125 -2.671875 C 6.082031 -2.734375 6.273438 -2.820312 6.390625 -2.9375 C 6.398438 -2.957031 6.429688 -2.96875 6.484375 -2.96875 C 6.546875 -2.96875 6.648438 -2.863281 6.796875 -2.65625 C 6.953125 -2.445312 7.09375 -2.171875 7.21875 -1.828125 C 7.351562 -1.492188 7.421875 -1.234375 7.421875 -1.046875 C 7.421875 -0.679688 7.140625 -0.390625 6.578125 -0.171875 C 6.023438 0.0351562 5.367188 0.140625 4.609375 0.140625 C 3.390625 0.140625 2.382812 -0.289062 1.59375 -1.15625 C 0.8125 -2.019531 0.421875 -3.234375 0.421875 -4.796875 C 0.421875 -6.367188 0.820312 -7.601562 1.625 -8.5 C 2.4375 -9.40625 3.453125 -9.859375 4.671875 -9.859375 Z M 4.671875 -9.859375 "/></g></g></g><g fill="rgb(100%, 83.139038%, 23.919678%)" fill-opacity="1"><g transform="translate(287.416076, 280.411916)"><g><path d="M 3.46875 -0.1875 C 3.46875 -0.0507812 3.035156 0.015625 2.171875 0.015625 L 1.390625 -0.03125 C 0.921875 -0.0625 0.6875 -0.125 0.6875 -0.21875 L 0.6875 -9.546875 C 0.6875 -9.710938 1.148438 -9.796875 2.078125 -9.796875 C 3.003906 -9.796875 3.46875 -9.710938 3.46875 -9.546875 L 3.46875 -6 L 5.171875 -9.546875 C 5.234375 -9.679688 5.601562 -9.75 6.28125 -9.75 C 7.519531 -9.75 8.171875 -9.640625 8.234375 -9.421875 C 8.234375 -9.410156 8.226562 -9.394531 8.21875 -9.375 L 5.796875 -5 L 8.609375 -1.125 C 8.609375 -1.101562 8.519531 -1.023438 8.34375 -0.890625 C 7.914062 -0.515625 7.414062 -0.222656 6.84375 -0.015625 C 6.664062 0.046875 6.488281 0.078125 6.3125 0.078125 L 5.984375 0.0625 C 5.679688 -0.0195312 5.445312 -0.210938 5.28125 -0.515625 L 3.703125 -3.546875 L 3.46875 -3.546875 Z M 3.46875 -0.1875 "/></g></g></g><path fill="rgb(100%, 83.139038%, 23.919678%)" d="M 188.625 101.066406 C 174.054688 101.066406 162.238281 112.882812 162.238281 127.453125 C 162.238281 137.035156 170.601562 144.636719 174.988281 152.417969 C 175.816406 153.890625 175.777344 159.175781 175.777344 159.175781 L 201.347656 159.175781 C 201.347656 159.175781 201.433594 153.890625 202.265625 152.417969 C 206.648438 144.636719 215.011719 137.035156 215.011719 127.453125 C 215.011719 112.882812 203.195312 101.066406 188.625 101.066406 Z M 188.625 104.886719 C 201.070312 104.886719 211.191406 115.007812 211.191406 127.453125 C 211.191406 132.972656 207.589844 137.980469 203.773438 143.28125 C 202.085938 145.632812 200.335938 148.058594 198.9375 150.542969 C 198.507812 151.300781 198.039062 152.46875 197.75 155.359375 L 179.449219 155.359375 C 179.265625 153.070312 178.914062 151.609375 178.3125 150.542969 C 176.914062 148.058594 175.167969 145.628906 173.476562 143.28125 C 169.660156 137.980469 166.054688 132.972656 166.054688 127.453125 C 166.054688 115.007812 176.179688 104.886719 188.625 104.886719 " fill-opacity="1" fill-rule="nonzero"/><path fill="rgb(100%, 83.139038%, 23.919678%)" d="M 204.15625 161.175781 C 204.15625 162.277344 203.257812 163.171875 202.15625 163.171875 L 175.09375 163.171875 C 173.988281 163.171875 173.09375 162.277344 173.09375 161.175781 C 173.09375 160.070312 173.988281 159.175781 175.09375 159.175781 L 202.15625 159.175781 C 203.257812 159.175781 204.15625 160.070312 204.15625 161.175781 " fill-opacity="1" fill-rule="nonzero"/><path fill="rgb(100%, 83.139038%, 23.919678%)" d="M 204.15625 165.171875 C 204.15625 166.277344 203.257812 167.171875 202.15625 167.171875 L 175.09375 167.171875 C 173.988281 167.171875 173.09375 166.277344 173.09375 165.171875 C 173.09375 164.070312 173.988281 163.171875 175.09375 163.171875 L 202.15625 163.171875 C 203.257812 163.171875 204.15625 164.070312 204.15625 165.171875 " fill-opacity="1" fill-rule="nonzero"/><path fill="rgb(100%, 83.139038%, 23.919678%)" d="M 204.15625 169.171875 C 204.15625 170.277344 203.257812 171.171875 202.15625 171.171875 L 175.09375 171.171875 C 173.988281 171.171875 173.09375 170.277344 173.09375 169.171875 C 173.09375 168.070312 173.988281 167.171875 175.09375 167.171875 L 202.15625 167.171875 C 203.257812 167.171875 204.15625 168.070312 204.15625 169.171875 " fill-opacity="1" fill-rule="nonzero"/><path fill="rgb(100%, 83.139038%, 23.919678%)" d="M 177.199219 171.171875 C 177.238281 174.703125 182.335938 177.558594 188.625 177.558594 C 194.910156 177.558594 200.011719 174.703125 200.050781 171.171875 L 177.199219 171.171875 " fill-opacity="1" fill-rule="nonzero"/><g mask="url(#id4)"><g transform="matrix(1, 0, 0, 1, 129, 138)"><g clip-path="url(#id6)"><g clip-path="url(#id5)"><path fill="rgb(100%, 83.139038%, 23.919678%)" d="M 11.4375 22.875 C 9.8125 22.875 8.164062 21.777344 8.164062 19.679688 L 8.164062 15.273438 L 3.757812 15.273438 C 1.660156 15.273438 0.5625 13.625 0.5625 12 C 0.5625 10.375 1.660156 8.726562 3.757812 8.726562 L 8.164062 8.726562 L 8.164062 4.320312 C 8.164062 2.222656 9.8125 1.125 11.4375 1.125 C 13.0625 1.125 14.710938 2.222656 14.710938 4.320312 L 14.710938 8.726562 L 19.117188 8.726562 C 21.214844 8.726562 22.3125 10.375 22.3125 12 C 22.3125 13.625 21.214844 15.273438 19.117188 15.273438 L 14.710938 15.273438 L 14.710938 19.679688 C 14.710938 21.777344 13.0625 22.875 11.4375 22.875 Z M 3.757812 10.589844 C 2.460938 10.589844 2.421875 11.855469 2.421875 12 C 2.421875 12.144531 2.460938 13.414062 3.757812 13.414062 L 10.027344 13.414062 L 10.027344 19.679688 C 10.027344 20.976562 11.292969 21.015625 11.4375 21.015625 C 11.582031 21.015625 12.851562 20.976562 12.851562 19.679688 L 12.851562 13.414062 L 19.117188 13.414062 C 20.414062 13.414062 20.453125 12.144531 20.453125 12 C 20.453125 11.855469 20.414062 10.589844 19.117188 10.589844 L 12.851562 10.589844 L 12.851562 4.320312 C 12.851562 3.023438 11.582031 2.984375 11.4375 2.984375 C 11.292969 2.984375 10.027344 3.023438 10.027344 4.320312 L 10.027344 10.589844 Z M 3.757812 10.589844 " fill-opacity="1" fill-rule="nonzero"/></g></g></g></g><g mask="url(#id7)"><g transform="matrix(1, 0, 0, 1, 99, 109)"><g clip-path="url(#id9)"><g clip-path="url(#id8)"><path fill="rgb(100%, 83.139038%, 23.919678%)" d="M 11.8125 22.625 C 10.1875 22.625 8.539062 21.527344 8.539062 19.429688 L 8.539062 15.023438 L 4.132812 15.023438 C 2.035156 15.023438 0.9375 13.375 0.9375 11.75 C 0.9375 10.125 2.035156 8.476562 4.132812 8.476562 L 8.539062 8.476562 L 8.539062 4.070312 C 8.539062 1.972656 10.1875 0.875 11.8125 0.875 C 13.4375 0.875 15.085938 1.972656 15.085938 4.070312 L 15.085938 8.476562 L 19.492188 8.476562 C 21.589844 8.476562 22.6875 10.125 22.6875 11.75 C 22.6875 13.375 21.589844 15.023438 19.492188 15.023438 L 15.085938 15.023438 L 15.085938 19.429688 C 15.085938 21.527344 13.4375 22.625 11.8125 22.625 Z M 4.132812 10.339844 C 2.835938 10.339844 2.796875 11.605469 2.796875 11.75 C 2.796875 11.894531 2.835938 13.164062 4.132812 13.164062 L 10.402344 13.164062 L 10.402344 19.429688 C 10.402344 20.726562 11.667969 20.765625 11.8125 20.765625 C 11.957031 20.765625 13.226562 20.726562 13.226562 19.429688 L 13.226562 13.164062 L 19.492188 13.164062 C 20.789062 13.164062 20.828125 11.894531 20.828125 11.75 C 20.828125 11.605469 20.789062 10.339844 19.492188 10.339844 L 13.226562 10.339844 L 13.226562 4.070312 C 13.226562 2.773438 11.957031 2.734375 11.8125 2.734375 C 11.667969 2.734375 10.402344 2.773438 10.402344 4.070312 L 10.402344 10.339844 Z M 4.132812 10.339844 " fill-opacity="1" fill-rule="nonzero"/></g></g></g></g><g clip-path="url(#id10)"><path fill="rgb(100%, 83.139038%, 23.919678%)" d="M 84.1875 167.625 C 82.5625 167.625 80.914062 166.527344 80.914062 164.429688 L 80.914062 160.023438 L 76.507812 160.023438 C 74.410156 160.023438 73.3125 158.375 73.3125 156.75 C 73.3125 155.125 74.410156 153.476562 76.507812 153.476562 L 80.914062 153.476562 L 80.914062 149.070312 C 80.914062 146.972656 82.5625 145.875 84.1875 145.875 C 85.8125 145.875 87.460938 146.972656 87.460938 149.070312 L 87.460938 153.476562 L 91.867188 153.476562 C 93.964844 153.476562 95.0625 155.125 95.0625 156.75 C 95.0625 158.375 93.964844 160.023438 91.867188 160.023438 L 87.460938 160.023438 L 87.460938 164.429688 C 87.460938 166.527344 85.8125 167.625 84.1875 167.625 Z M 76.507812 155.339844 C 75.210938 155.339844 75.171875 156.605469 75.171875 156.75 C 75.171875 156.894531 75.210938 158.164062 76.507812 158.164062 L 82.777344 158.164062 L 82.777344 164.429688 C 82.777344 165.726562 84.042969 165.765625 84.1875 165.765625 C 84.332031 165.765625 85.601562 165.726562 85.601562 164.429688 L 85.601562 158.164062 L 91.867188 158.164062 C 93.164062 158.164062 93.203125 156.894531 93.203125 156.75 C 93.203125 156.605469 93.164062 155.339844 91.867188 155.339844 L 85.601562 155.339844 L 85.601562 149.070312 C 85.601562 147.773438 84.332031 147.734375 84.1875 147.734375 C 84.042969 147.734375 82.777344 147.773438 82.777344 149.070312 L 82.777344 155.339844 Z M 76.507812 155.339844 " fill-opacity="1" fill-rule="nonzero"/></g><g mask="url(#id11)"><g transform="matrix(1, 0, 0, 1, 225, 124)"><g clip-path="url(#id13)"><g clip-path="url(#id12)"><path fill="rgb(100%, 83.139038%, 23.919678%)" d="M 11.8125 22.25 C 10.1875 22.25 8.539062 21.152344 8.539062 19.054688 L 8.539062 14.648438 L 4.132812 14.648438 C 2.035156 14.648438 0.9375 13 0.9375 11.375 C 0.9375 9.75 2.035156 8.101562 4.132812 8.101562 L 8.539062 8.101562 L 8.539062 3.695312 C 8.539062 1.597656 10.1875 0.5 11.8125 0.5 C 13.4375 0.5 15.085938 1.597656 15.085938 3.695312 L 15.085938 8.101562 L 19.492188 8.101562 C 21.589844 8.101562 22.6875 9.75 22.6875 11.375 C 22.6875 13 21.589844 14.648438 19.492188 14.648438 L 15.085938 14.648438 L 15.085938 19.054688 C 15.085938 21.152344 13.4375 22.25 11.8125 22.25 Z M 4.132812 9.964844 C 2.835938 9.964844 2.796875 11.230469 2.796875 11.375 C 2.796875 11.519531 2.835938 12.789062 4.132812 12.789062 L 10.402344 12.789062 L 10.402344 19.054688 C 10.402344 20.351562 11.667969 20.390625 11.8125 20.390625 C 11.957031 20.390625 13.226562 20.351562 13.226562 19.054688 L 13.226562 12.789062 L 19.492188 12.789062 C 20.789062 12.789062 20.828125 11.519531 20.828125 11.375 C 20.828125 11.230469 20.789062 9.964844 19.492188 9.964844 L 13.226562 9.964844 L 13.226562 3.695312 C 13.226562 2.398438 11.957031 2.359375 11.8125 2.359375 C 11.667969 2.359375 10.402344 2.398438 10.402344 3.695312 L 10.402344 9.964844 Z M 4.132812 9.964844 " fill-opacity="1" fill-rule="nonzero"/></g></g></g></g><g mask="url(#id14)"><g transform="matrix(1, 0, 0, 1, 247, 156)"><g clip-path="url(#id16)"><g clip-path="url(#id15)"><path fill="rgb(100%, 83.139038%, 23.919678%)" d="M 11.1875 22.3125 C 9.5625 22.3125 7.914062 21.214844 7.914062 19.117188 L 7.914062 14.710938 L 3.507812 14.710938 C 1.410156 14.710938 0.3125 13.0625 0.3125 11.4375 C 0.3125 9.8125 1.410156 8.164062 3.507812 8.164062 L 7.914062 8.164062 L 7.914062 3.757812 C 7.914062 1.660156 9.5625 0.5625 11.1875 0.5625 C 12.8125 0.5625 14.460938 1.660156 14.460938 3.757812 L 14.460938 8.164062 L 18.867188 8.164062 C 20.964844 8.164062 22.0625 9.8125 22.0625 11.4375 C 22.0625 13.0625 20.964844 14.710938 18.867188 14.710938 L 14.460938 14.710938 L 14.460938 19.117188 C 14.460938 21.214844 12.8125 22.3125 11.1875 22.3125 Z M 3.507812 10.027344 C 2.210938 10.027344 2.171875 11.292969 2.171875 11.4375 C 2.171875 11.582031 2.210938 12.851562 3.507812 12.851562 L 9.777344 12.851562 L 9.777344 19.117188 C 9.777344 20.414062 11.042969 20.453125 11.1875 20.453125 C 11.332031 20.453125 12.601562 20.414062 12.601562 19.117188 L 12.601562 12.851562 L 18.867188 12.851562 C 20.164062 12.851562 20.203125 11.582031 20.203125 11.4375 C 20.203125 11.292969 20.164062 10.027344 18.867188 10.027344 L 12.601562 10.027344 L 12.601562 3.757812 C 12.601562 2.460938 11.332031 2.421875 11.1875 2.421875 C 11.042969 2.421875 9.777344 2.460938 9.777344 3.757812 L 9.777344 10.027344 Z M 3.507812 10.027344 " fill-opacity="1" fill-rule="nonzero"/></g></g></g></g><g clip-path="url(#id17)"><path fill="rgb(100%, 83.139038%, 23.919678%)" d="M 290.8125 156.9375 C 289.1875 156.9375 287.539062 155.839844 287.539062 153.742188 L 287.539062 149.335938 L 283.132812 149.335938 C 281.035156 149.335938 279.9375 147.6875 279.9375 146.0625 C 279.9375 144.4375 281.035156 142.789062 283.132812 142.789062 L 287.539062 142.789062 L 287.539062 138.382812 C 287.539062 136.285156 289.1875 135.1875 290.8125 135.1875 C 292.4375 135.1875 294.085938 136.285156 294.085938 138.382812 L 294.085938 142.789062 L 298.492188 142.789062 C 300.589844 142.789062 301.6875 144.4375 301.6875 146.0625 C 301.6875 147.6875 300.589844 149.335938 298.492188 149.335938 L 294.085938 149.335938 L 294.085938 153.742188 C 294.085938 155.839844 292.4375 156.9375 290.8125 156.9375 Z M 283.132812 144.652344 C 281.835938 144.652344 281.796875 145.917969 281.796875 146.0625 C 281.796875 146.207031 281.835938 147.476562 283.132812 147.476562 L 289.402344 147.476562 L 289.402344 153.742188 C 289.402344 155.039062 290.667969 155.078125 290.8125 155.078125 C 290.957031 155.078125 292.226562 155.039062 292.226562 153.742188 L 292.226562 147.476562 L 298.492188 147.476562 C 299.789062 147.476562 299.828125 146.207031 299.828125 146.0625 C 299.828125 145.917969 299.789062 144.652344 298.492188 144.652344 L 292.226562 144.652344 L 292.226562 138.382812 C 292.226562 137.085938 290.957031 137.046875 290.8125 137.046875 C 290.667969 137.046875 289.402344 137.085938 289.402344 138.382812 L 289.402344 144.652344 Z M 283.132812 144.652344 " fill-opacity="1" fill-rule="nonzero"/></g></svg>